<?xml version="1.0" encoding="iso-8859-1"?>
<!-- Generator: Adobe Illustrator 21.0.0, SVG Export Plug-In . SVG Version: 6.00 Build 0)  -->
<svg version="1.1" id="Capa_1" xmlns="http://www.w3.org/2000/svg" xmlns:xlink="http://www.w3.org/1999/xlink" x="0px" y="0px"
	 viewBox="0 0 609.156 609.156" style="enable-background:new 0 0 609.156 609.156;" xml:space="preserve">
<g>
	<g>
		<g id="filled_outline_4_">
			<path style="fill:#E04E2D;" d="M192.899,150.004l-11.513-28.783c-5.726-14.315-15.655-26.559-28.488-35.108
				c-7.249-4.843-17.046-2.883-21.879,4.355c-4.183,6.264-3.35,14.62,1.98,19.94c5.858,5.858,9.137,13.797,9.137,22.082v27.666
				L192.899,150.004z"/>
			<path style="fill:#4394CC;" d="M10.153,366.254v104.572c0,7.848,6.366,14.214,14.214,14.214l0,0H584.79
				c7.848,0,14.214-6.366,14.214-14.214l0,0V363.209h-588.8C10.153,364.285,10.153,365.341,10.153,366.254z"/>
			<path style="fill:#DED7D3;" d="M538.088,221.072H94.673c-26.214-0.01-49.494,16.762-57.799,41.626l-22.549,67.698
				c-2.589,10.752-3.98,21.757-4.122,32.813h588.8v-81.221C599.003,248.342,571.733,221.072,538.088,221.072z"/>
			<path style="fill:#ED5A2D;" d="M314.731,180.462h203.052c-0.01-11.757-8.417-21.828-19.98-23.94l0,0
				c-61.007-11.087-122.887-16.671-184.899-16.671h3.655c-62.012,0-123.892,5.584-184.899,16.671l0,0
				c-11.564,2.112-19.97,12.183-19.98,23.94H314.731z"/>
			<path style="fill:#2A679C;" d="M192.899,485.04H50.763l7.665-53.636c1.432-10,10-17.432,20.102-17.432h86.602
				c10.102,0,18.671,7.432,20.102,17.432L192.899,485.04z"/>
			<path style="fill:#2A679C;" d="M527.935,485.04H385.799l7.665-53.636c1.432-10,10-17.432,20.102-17.432h86.602
				c10.102,0,18.671,7.432,20.102,17.432L527.935,485.04z"/>
			<path style="fill:#4394CC;" d="M204.23,261.683h109.323c6.254,0,11.33,5.076,11.33,11.33v38.255c0,6.254-5.076,11.33-11.33,11.33
				H204.23c-6.254,0-11.33-5.076-11.33-11.33v-38.255C192.899,266.759,197.976,261.683,204.23,261.683z"/>
			<path style="fill:#4394CC;" d="M376.824,261.683h109.323c6.254,0,11.33,5.076,11.33,11.33v38.255
				c0,6.254-5.076,11.33-11.33,11.33H376.824c-6.254,0-11.33-5.076-11.33-11.33v-38.255
				C365.494,266.759,370.57,261.683,376.824,261.683z"/>
			<path style="fill:#4394CC;" d="M152.289,311.268v-38.255c0-6.254-5.076-11.33-11.33-11.33H37.321
				c-0.132,0.355-0.325,0.68-0.447,1.015l-19.95,59.9h124.034C147.213,322.598,152.289,317.522,152.289,311.268z"/>
			<path style="fill:#3E89BD;" d="M140.959,261.683h-19.127l-60.916,60.916h80.043c6.254,0,11.33-5.076,11.33-11.33v-38.255
				C152.289,266.759,147.213,261.683,140.959,261.683z"/>
			<path style="fill:#3E89BD;" d="M313.553,261.683h-19.128l-60.916,60.916h80.043c6.254,0,11.33-5.076,11.33-11.33l0,0v-38.255
				C324.883,266.759,319.807,261.683,313.553,261.683L313.553,261.683z"/>
			<path style="fill:#3E89BD;" d="M486.147,261.683H467.02l-60.916,60.916h80.043c6.254,0,11.33-5.076,11.33-11.33l0,0v-38.255
				C497.477,266.759,492.401,261.683,486.147,261.683L486.147,261.683z"/>
			<path style="fill:#DED7D3;" d="M10.153,434.277v36.549c0,7.848,6.366,14.214,14.214,14.214l0,0h26.397l7.249-50.763H10.153z"/>
			<path style="fill:#DED7D3;" d="M520.686,434.277l7.249,50.763h56.855c7.848,0,14.214-6.366,14.214-14.214l0,0v-36.549H520.686z"
				/>
			<circle style="fill:#798DA1;" cx="121.831" cy="485.04" r="50.763"/>
			<circle style="fill:#DED7D3;" cx="121.831" cy="485.04" r="10.153"/>
			<circle style="fill:#798DA1;" cx="456.867" cy="485.04" r="50.763"/>
			<circle style="fill:#DED7D3;" cx="456.867" cy="485.04" r="10.153"/>
			<path d="M538.088,210.92H395.951v-20.305h121.831c5.604,0,10.153-4.548,10.153-10.153c0.01-16.671-11.909-30.955-28.316-33.92
				c-60.276-10.955-121.395-16.589-182.655-16.843h-4.467c-38.103,0.234-76.155,2.558-114.004,6.955l-7.686-19.209
				c-6.467-16.234-17.726-30.113-32.275-39.788c-11.909-7.949-28.011-4.741-35.961,7.178c-6.863,10.285-5.513,23.991,3.239,32.732
				c3.97,3.949,6.193,9.32,6.173,14.914v13.716c-0.711,0.122-1.432,0.213-2.142,0.335c-16.386,2.995-28.305,17.27-28.316,33.93
				c0,5.604,4.548,10.153,10.153,10.153h101.526v20.305H94.673c-29.818,0.01-56.448,18.671-66.621,46.702
				c-0.051,0.081-0.102,0.173-0.142,0.264c-0.173,0.355-0.538,1.259-0.66,1.624l-19.96,59.9l0,0l-2.589,7.777
				C1.574,339.969,0,353.086,0,366.254v104.572c0,13.452,10.914,24.366,24.366,24.366l0,0h47.717
				c5.584,27.473,32.377,45.23,59.85,39.646c19.98-4.061,35.585-19.666,39.646-39.646h235.54
				c5.584,27.473,32.377,45.23,59.85,39.646c19.98-4.061,35.585-19.666,39.646-39.646h78.175c13.452,0,24.366-10.914,24.366-24.366
				l0,0V281.988C609.115,242.758,577.317,210.96,538.088,210.92z M140.167,103.221c-2.213-2.183-2.244-5.736-0.061-7.949
				c1.909-1.939,4.924-2.234,7.168-0.711c11.127,7.411,19.737,18.031,24.681,30.458l5.635,14.061
				c-8.467,1.137-16.874,2.569-25.3,3.919v-10.518C152.319,121.495,147.954,110.967,140.167,103.221z M133.466,166.512
				c59.809-10.853,120.471-16.386,181.264-16.508c60.794,0.122,121.456,5.655,181.264,16.518c2.772,0.508,5.34,1.817,7.361,3.787
				h-377.24C128.136,168.34,130.694,167.02,133.466,166.512z M233.51,190.614h142.136v20.305H233.51V190.614z M44.539,271.835h96.45
				c0.65,0,1.178,0.528,1.178,1.178v38.255c0,0.65-0.528,1.178-1.178,1.178H31.006L44.539,271.835z M588.851,424.733l-60.012-0.609
				c-4.325-12.122-15.787-20.244-28.661-20.305h-86.622c-15.127,0.061-27.94,11.178-30.143,26.143l-6.416,44.925H201.702
				l-6.416-44.925c-2.203-14.965-15.016-26.082-30.143-26.143H78.52c-12.955,0.051-24.478,8.234-28.772,20.458l-29.443,0.416
				v-51.332h568.546V424.733z M20.305,470.826v-25.828l25.981-0.366l-4.325,30.255H24.366
				C22.123,474.887,20.305,473.07,20.305,470.826L20.305,470.826z M121.831,515.498c-16.823,0-30.458-13.635-30.458-30.458
				s13.635-30.458,30.458-30.458s30.458,13.635,30.458,30.458S138.654,515.498,121.831,515.498z M171.579,474.887
				c-5.584-27.473-32.377-45.23-59.85-39.646c-19.98,4.061-35.585,19.666-39.646,39.646h-9.615l6.01-42.052
				c0.721-4.995,4.995-8.711,10.041-8.711h86.622c5.046,0,9.32,3.716,10.041,8.711l6.01,42.052H171.579z M456.867,515.498
				c-16.823,0-30.458-13.635-30.458-30.458s13.635-30.458,30.458-30.458s30.458,13.635,30.458,30.458
				S473.69,515.498,456.867,515.498z M506.615,474.887c-5.584-27.473-32.377-45.23-59.85-39.646
				c-19.98,4.061-35.585,19.666-39.646,39.646h-9.625l6.01-42.052c0.721-4.995,5.005-8.711,10.051-8.711h86.622
				c5.046,0,9.32,3.716,10.041,8.711l6.01,42.052H506.615z M584.79,474.887h-48.052l-4.345-30.407l56.459,0.558v25.788
				C588.851,473.07,587.033,474.887,584.79,474.887L584.79,474.887z M588.851,353.056H20.955c0.376-6.559,1.381-13.066,2.995-19.442
				l0.294-0.863h116.755c11.848-0.03,21.432-9.635,21.442-21.483v-38.255c-0.01-11.858-9.625-21.473-21.483-21.483H54.073
				c9.584-12.792,24.63-20.315,40.61-20.305h443.405c28.021,0.03,50.733,22.742,50.763,50.763V353.056z"/>
			<path d="M313.553,251.53H204.23c-11.858,0.01-21.473,9.625-21.483,21.483v38.255c0.01,11.858,9.625,21.473,21.483,21.483h109.323
				c11.858-0.01,21.473-9.625,21.483-21.483v-38.255C335.026,261.155,325.411,251.54,313.553,251.53z M314.731,311.268
				c0,0.65-0.528,1.178-1.178,1.178l0,0H204.23c-0.65,0-1.178-0.528-1.178-1.178v-38.255c0-0.65,0.528-1.178,1.178-1.178h109.323
				c0.65,0,1.178,0.528,1.178,1.178l0,0C314.731,273.013,314.731,311.268,314.731,311.268z"/>
			<path d="M486.147,251.53H376.824c-11.858,0.01-21.473,9.625-21.483,21.483v38.255c0.01,11.858,9.625,21.473,21.483,21.483
				h109.323c11.858-0.01,21.473-9.625,21.483-21.483v-38.255C507.62,261.155,498.005,251.54,486.147,251.53z M487.325,311.268
				c0,0.65-0.528,1.178-1.178,1.178l0,0H376.824c-0.65,0-1.178-0.528-1.178-1.178l0,0v-38.255c0-0.65,0.528-1.178,1.178-1.178l0,0
				h109.323c0.65,0,1.178,0.528,1.178,1.178l0,0C487.325,273.013,487.325,311.268,487.325,311.268z"/>
			<rect x="527.935" y="271.835" width="40.61" height="20.305"/>
			<rect x="527.935" y="312.446" width="40.61" height="20.305"/>
		</g>
	</g>
</g>
<g>
</g>
<g>
</g>
<g>
</g>
<g>
</g>
<g>
</g>
<g>
</g>
<g>
</g>
<g>
</g>
<g>
</g>
<g>
</g>
<g>
</g>
<g>
</g>
<g>
</g>
<g>
</g>
<g>
</g>
</svg>
